<svg xmlns="http://www.w3.org/2000/svg" version="1.0" width="620" height="619" preserveAspectRatio="xMidYMid meet"><rect id="backgroundrect" width="100%" height="100%" x="0" y="0" fill="none" stroke="none" data-darkreader-inline-fill="" data-darkreader-inline-stroke="" style="--darkreader-inline-fill:none; --darkreader-inline-stroke:none;" class=""/>


<g class="currentLayer" style=""><title>Layer 1</title><g transform="translate(0,64) scale(0.10000000149011612,-0.10000000149011612) " fill="#eb1a1a" stroke="none" id="svg_1" data-darkreader-inline-fill="" data-darkreader-inline-stroke="" style="--darkreader-inline-fill:#b81010; --darkreader-inline-stroke:none;" class="" fill-opacity="1">
<path d="M325.27136993408203,561.2911033630371 c0,-28 -6,-38 -35,-55 c-19,-11 -35,-25 -35,-31 c0,-5 -22,-10 -50,-10 c-38,0 -50,-4 -50,-15 c0,-11 11,-15 38,-15 l37,0 l0,-45 l0,-45 l-102,0 c-85,0 -103,-3 -103,-15 c0,-10 10,-15 30,-15 c25,0 30,-4 30,-25 c0,-53 76,-57 87,-4 c5,26 10,29 43,29 c24,0 40,-5 43,-14 c3,-8 20,-22 37,-31 c39,-20 79,-13 110,21 c16,16 34,24 55,24 c28,0 33,-4 38,-29 c11,-53 87,-49 87,4 c0,21 5,25 30,25 c20,0 30,5 30,15 c0,12 -18,15 -102,15 l-103,0 l0,45 l0,45 l38,0 c26,0 37,4 37,15 c0,11 -11,15 -43,15 c-32,0 -49,6 -63,21 c-10,12 -29,25 -41,30 c-18,7 -23,16 -23,44 c0,19 -4,35 -10,35 c-5,0 -10,-15 -10,-34 zm65,-146 c0,-11 -13,-16 -49,-18 c-50,-3 -74,7 -61,28 c11,17 110,9 110,-10 zm-237,-117 c5,-17 -26,-29 -40,-15 c-6,6 -7,15 -3,22 c9,14 37,9 43,-7 zm410,0 c5,-17 -26,-29 -40,-15 c-6,6 -7,15 -3,22 c9,14 37,9 43,-7 z" id="svg_2" fill="#eb1a1a" fill-opacity="1" data-darkreader-inline-fill="" style="--darkreader-inline-fill:#b81010;"/>
<path d="M250.27136993408203,49.29110336303711 c-116,-17 -225,-49 -225,-66 c0,-10 -10,-12 104,17 c75,19 124,25 206,25 c82,0 131,-6 206,-25 c114,-29 104,-27 104,-16 c0,34 -286,81 -395,65 z" id="svg_3" fill="#eb1a1a" fill-opacity="1" data-darkreader-inline-fill="" style="--darkreader-inline-fill:#b81010;"/>
</g></g></svg>